<?xml version="1.0" encoding="utf-8"?>
<!-- Generator: Adobe Illustrator 27.5.0, SVG Export Plug-In . SVG Version: 6.00 Build 0)  -->
<svg version="1.1" xmlns="http://www.w3.org/2000/svg" xmlns:xlink="http://www.w3.org/1999/xlink" x="0px" y="0px"
	 viewBox="0 0 1100 800" style="enable-background:new 0 0 1100 800;" xml:space="preserve">
<g id="background">
	<rect style="fill:#145566;" width="1100" height="800"/>
</g>
<g id="shadow">
	<path style="fill:#437785;" d="M313.071,612.085c-45.767,0.549-87.61,5.387-132.841,6.684
		c-22.871,0.656-97.938-1.143-112.437,11.675c-22.876,20.223,37.62,18.982,31.428,34.274c-1.228,3.032-5.844,5.116-8.657,7.758
		c-5.05,4.742-3.753,11.203,1.577,15.838c23.346,20.297,108.712,14.394,144.577,14.738c207.493,1.989,415.546,4.352,621.889-2.354
		c44.501-1.446,88.744-3.273,133.053-4.975c20.278-0.778,45.658-2.808,45.738-7.357c0.203-11.517-38.377,0.572-25.614-22.412
		c4.101-7.386,25.284-8.851,14.541-21.504c-11.812-13.911-39.095-24.654-64.307-28.172c-25.755-3.592-52.249-3.029-78.439-4.169
		c-48.079-2.093-96.373-2.493-144.604-2.68c-109.409-0.425-218.821,0.285-328.207,1.387
		C378.215,611.145,345.641,611.695,313.071,612.085z"/>
</g>
<g id="object">
	<g>
		<g>
			
				<rect x="146.542" y="187.327" transform="matrix(0.0454 -0.999 0.999 0.0454 -116.613 395.9707)" style="fill:#FFFFFF;" width="4.678" height="143.35"/>
		</g>
		<g>
			
				<rect x="166.159" y="106.433" transform="matrix(0.7997 -0.6004 0.6004 0.7997 -82.1365 139.827)" style="fill:#FFFFFF;" width="4.678" height="173.165"/>
		</g>
		<g>
			<polygon style="fill:#EAC5B0;" points="640.81,357.339 641.439,346.516 646.075,346.283 647.285,353.684 649.493,352.559 
				647.827,361.828 642.998,362.719 			"/>
			<polygon style="fill:#1A3151;" points="701.242,400.185 666.897,397.171 649.978,356.617 640.633,359.672 649.493,415.767 
				703.142,425.519 			"/>
		</g>
		<g>
			<polygon style="fill:#B99A6F;" points="209.853,336.279 208.281,325.513 203.626,325.685 203.061,333.189 200.756,332.257 
				203.229,341.378 208.134,341.848 			"/>
			<polygon style="fill:#1A3151;" points="142.575,389.158 192.024,379.506 200.624,336.356 210.233,338.596 207.486,398.529 
				158.143,415.004 			"/>
		</g>
		<g>
			<g>
				<g>
					<path style="fill:#1A3151;" d="M347.711,661.71c-1.059-1.165-2.294-1.801-3.69-1.582c-1.341,0.211-2.547,1.119-3.1,2.335
						c-0.377,0.829-0.457,1.753-0.531,2.657c-0.387,4.679-0.352,15.789,5.881,17.389c2.619,0.672,4.786-1.189,5.486-3.541
						C352.81,675.423,351.25,665.607,347.711,661.71z"/>
					<path style="fill:#EAC5B0;" d="M349.928,591.12l-0.326,28.541c0.379,12.677-1.6,25.426-1.221,38.104
						c0.087,2.915,0.847,5.99,0.112,8.88c-0.718,2.826-3.015,3.326-5.372,1.895c-3.158-1.918-2.649-6.396-3.175-9.663
						c-1.445-8.977-3.14-17.913-4.65-26.88c-0.74-4.396,0.785-10.557,0.453-15.005l-4.611-23.919L349.928,591.12z"/>
				</g>
				<polygon style="fill:#1A3151;" points="317.318,545.003 329.74,600.183 332.378,652.292 352.075,651.849 357.431,506.092 
					319.248,506.786 				"/>
				<g>
					<g>
						<path style="fill:#1A3151;" d="M375.884,660.673c-1.105-1.104-2.364-1.668-3.745-1.366c-1.327,0.29-2.49,1.271-2.99,2.52
							c-0.34,0.852-0.38,1.781-0.416,2.691c-0.185,4.706,0.324,15.822,6.605,17.055c2.639,0.518,4.72-1.472,5.316-3.868
							C381.553,674.096,379.578,664.364,375.884,660.673z"/>
						<path style="fill:#EAC5B0;" d="M365.502,595.126l1.671,28.495c0.137,7.919,1.192,15.776,2.012,23.642
							c0.761,7.306-0.424,14.916,3.395,21.561c1.197,2.084,3.618,3.471,5.309,0.94c1.303-1.951,0.529-5.206,0.779-7.419
							c1.02-9.035,2.292-18.04,3.377-27.067c0.532-4.426-1.282-10.509-1.16-14.968l3.478-24.108L365.502,595.126z"/>
					</g>
					<polygon style="fill:#1A3151;" points="390.428,541.629 392.031,595.193 383.625,649.359 363.589,649.958 364.473,591.337 
						353.871,542.723 350.312,510.901 382.103,507.152 					"/>
				</g>
				<polygon style="fill:#ADB6C4;" points="365.278,397.531 331.028,396.713 311.169,433.646 318.228,468.238 319.484,509.635 
					368.341,510.302 384.417,507.692 380.149,463.46 382.596,404.374 				"/>
				<polygon style="fill:#EAC5B0;" points="319.552,493.332 317.979,499.051 326,505.599 332.232,502.788 333.877,496.072 
					328.987,494.175 329.193,492.648 327.858,490.937 				"/>
				<polygon style="fill:#ADB6C4;" points="331.067,398.026 289.23,443.934 282.941,462.51 317.141,498.37 327.513,491.392 
					305.583,461.395 326.51,445.883 				"/>
				<polygon style="fill:#ABADB2;" points="363.983,419.909 381.823,455.574 401.059,459.397 438.143,428.057 429.876,418.68 
					397.012,437.093 379.588,404.374 				"/>
				<g>
					<path style="fill:#EAC5B0;" d="M363.134,368.835c-5.163-15.012-24.981-9.386-29.067,3.98
						c-2.665,8.719,4.069,20.034,13.103,22.538c0.04,0.343,0.07,0.664,0.071,0.936c0.006,1.4,0.179,2.779,0.386,4.178
						c0.077,0.521,7.984-0.998,8.865-1.171c0.309-0.061,0.653-0.145,0.819-0.403c0.319-0.497-0.2-1.958-0.258-2.51
						c-0.068-0.651-0.137-1.302-0.205-1.954c4.456-2.175,7.268-6.808,8.054-11.525C365.691,378.165,364.685,373.346,363.134,368.835
						z"/>
					<g>
						<path d="M350.204,355.27c-1.063,1.079-1.48,2.584-1.787,4.029c-0.183,0.863-0.34,1.755-0.156,2.61
							c0.736,3.408,4.116,3.23,6.73,4.328c3.224,1.355,6.003,3.848,7.808,6.721c2.826,4.497,1.555,10.284,0.409,15.245
							c-0.404,1.748-1.217,4.347,0.139,5.907c1.378,1.585,4.562,1.34,6.212,0.525c1.508-0.745,2.746-2.122,4.402-2.4
							c1.752-0.293,4.12,0.477,4.936-1.131c0.227-0.447,0.248-0.994,0.534-1.404c0.968-1.384,3.376,0.237,4.741-0.739
							c0.839-0.6,0.833-1.88,0.549-2.892c-0.284-1.012-0.762-2.038-0.564-3.068c0.17-0.885,0.808-1.585,1.203-2.39
							c0.779-1.59,0.51-3.662-0.65-5.005c-2.158-2.497-6.333-2.023-8.645-4.372c-1.204-1.224-1.671-2.988-2.12-4.659
							c-0.449-1.67-0.988-3.431-2.275-4.563c-1.59-1.398-3.887-1.161-5.456-2.819c-0.922-0.974-1.537-2.243-2.572-3.09
							c-1.364-1.118-4.03-1.977-5.726-2.547C355.225,352.652,352.215,353.228,350.204,355.27z"/>
						<path d="M337.669,379.225c-0.092,4.941,2.362,10.282,0.086,14.632c-2.297,4.389-8.023,5.18-12.903,5.409
							c-0.803,0.038-11.102,0.927-11.146,0.732c-0.771-3.441-1.569-6.951-3.367-9.973c-1.799-3.022-4.806-5.526-8.25-5.741
							c0.994-0.172,1.495-1.389,1.38-2.415c-0.115-1.026-0.646-1.951-0.953-2.936c-0.754-2.422-0.02-5.247,1.806-6.949
							c3.643-3.396,10.249-1.985,13.372-5.885c1.937-2.418,1.706-5.926,2.721-8.879c1.962-5.709,8.213-6.904,12.884-9.482
							c4.931-2.722,9.575-4.213,15.267-3.265c7.056,1.176,12.301,8.359,9.579,15.12c-3.49,8.67-17.444,7.922-20.057,16.726
							C337.808,377.264,337.687,378.237,337.669,379.225z"/>
					</g>
				</g>
			</g>
			<polygon style="fill:#B5D6CA;" points="341.16,397.335 351.785,412.353 356.78,411.944 365.105,396.713 			"/>
		</g>
		<g>
			
				<rect x="848.853" y="47.863" transform="matrix(0.1321 -0.9912 0.9912 0.1321 605.3633 960.5232)" style="fill:#FFFFFF;" width="4.678" height="173.407"/>
		</g>
		<g>
			
				<rect x="279.376" y="240.179" transform="matrix(0.6841 -0.7293 0.7293 0.6841 -176.3763 320.3866)" style="fill:#FFFFFF;" width="4.678" height="247.3"/>
		</g>
		<g>
			
				<rect x="875.738" y="75.564" transform="matrix(0.5612 -0.8277 0.8277 0.5612 211.4291 818.9023)" style="fill:#FFFFFF;" width="4.678" height="268.948"/>
		</g>
		<g>
			<path style="fill:#1A3151;" d="M185.419,521.955c-0.82-8.448-1.671-16.895-2.71-25.32c-2.073-16.804-4.895-33.568-9.67-49.835
				c-1.824-6.214-3.928-12.342-6.032-18.468c-2.562-7.459-5.123-14.919-7.685-22.378c-3.184-9.271-8.557-15.802-17.965-19.045
				c-1.68-0.579-3.449-1.026-5.272-1.353c-0.045,0.192-0.085,0.386-0.11,0.591c-0.109,0.89-0.364,1.878-0.927,2.524l6.175,0.059
				c0,0,17.422,60.884,18.062,71.378c0.243,3.989,1.053,12.697,1.953,21.87l9.461,1.393l0.406,35.087
				c0.53,0.152,1.057,0.3,1.579,0.438c3.002,0.797,5.444,2.984,7.938,4.7C184.306,526.129,185.921,527.132,185.419,521.955z"/>
			<path style="fill:#1A3151;" d="M111.766,481.151c1.722-8.57,3.068-16.479,3.192-20.769c0.371-12.901,2.022-55.51,2.022-55.51
				l8.008-16.298l1.478,0.014c-0.106-0.012-0.213-0.025-0.319-0.038c0.15-1.391,0.086-2.545-0.127-3.555
				c-13.963,0.84-28.274,8.161-32.281,21.756c-0.33,1.12-0.587,2.265-0.681,3.428c-0.559,6.984,1.575,12.144-0.44,19.159
				c-1.751,6.095-3.338,12.281-4.503,18.518c-1.686,9.028-3.244,18.013-4.47,26.975c-1.358,9.925-2.315,19.822-2.593,29.66
				c-0.031,1.088-0.25,4.129-0.373,7.763c-0.257,7.611-0.092,17.791,3.112,18.172c0.6,0.071,1.179-0.194,1.707-0.451
				c4.122-2.003,7.37-4.617,11.005-6.902l0.195-39.702L111.766,481.151z"/>
			<path style="fill:#1A3151;" d="M145.604,513.183c-0.685,0.051-1.383,0.105-2.093,0.161l-6.778,65.127l7.286,94.719h0.069v-1.43
				h12.154l15.416-105.476l-0.553-47.827c-7.368-2.12-15.351-5.389-23.047-5.321C147.242,513.142,146.423,513.164,145.604,513.183z"
				/>
			<path style="fill:#1A3151;" d="M161.239,481.976c1.425,14.517,3.079,30.201,3.079,30.201s-7.649,0.181-18.714,1.006
				c0.818-0.019,1.637-0.041,2.454-0.048c7.696-0.068,15.678,3.201,23.047,5.321l-0.406-35.087L161.239,481.976z"/>
			<polygon style="fill:#1A3151;" points="144.089,673.19 144.089,678.256 157.081,684.752 163.577,678.256 157.081,671.76 
				156.243,671.76 156.034,673.19 			"/>
			<polygon style="fill:#1A3151;" points="144.089,673.19 156.034,673.19 156.243,671.76 144.089,671.76 			"/>
			<path style="fill:#1A3151;" d="M126.511,515.018c-0.297,0.036-0.593,0.07-0.891,0.106c-7.738,1.656-12.761,2.303-16.023,2.473
				c-3.138,0.823-6.196,1.862-9.06,3.225c-1.429,0.681-2.754,1.444-4.032,2.247l-0.041,8.267l14.752,140.422h12.095v1.43h0.069
				l13.299-94.189l0.055-0.53l-0.302-3.924L126.511,515.018z"/>
			<path style="fill:#1A3151;" d="M109.596,517.598c-5.276,0.275-5.932-0.702-5.932-0.702s4.76-19.117,8.102-35.745L96.7,483.369
				l-0.195,39.702c1.278-0.803,2.603-1.566,4.032-2.247C103.4,519.461,106.459,518.421,109.596,517.598z"/>
			<path style="fill:#1A3151;" d="M126.511,515.018l9.921,59.528l0.302,3.924l6.778-65.127
				C138.355,513.752,132.56,514.296,126.511,515.018z"/>
			<polygon style="fill:#1A3151;" points="111.215,671.76 110.318,671.76 103.822,678.256 110.318,684.752 123.31,678.256 
				123.31,673.19 111.366,673.19 			"/>
			<polygon style="fill:#1A3151;" points="111.215,671.76 111.366,673.19 123.31,673.19 123.31,671.76 			"/>
			<path style="fill:#FFFFFF;" d="M134.17,389.269c-0.504,0.166-1.052,0.105-1.579,0.043c-2.041-0.241-4.083-0.483-6.124-0.725
				l-1.478-0.014l-8.008,16.298c0,0-1.651,42.609-2.022,55.51c-0.123,4.29-1.469,12.199-3.192,20.769l8.882-1.308l-0.657-3.94
				l4.782,0.704l-0.332-0.563l2.015-78.554l-1.3-5.112c-0.363-1.425,0.714-2.809,2.184-2.809h7.993c1.866,0,2.924,2.138,1.792,3.621
				l-3.281,4.3l8.581,79.147l4.984-0.734l-0.414,3.976l14.245,2.097c-0.901-9.173-1.71-17.881-1.953-21.87
				c-0.64-10.493-18.062-71.378-18.062-71.378l-6.175-0.059c-0.068,0.078-0.138,0.153-0.215,0.22
				C134.643,389.055,134.423,389.186,134.17,389.269z"/>
			<path style="fill:#FFFFFF;" d="M143.512,513.344c0.71-0.056,1.408-0.11,2.093-0.161c-0.694,0.016-1.388,0.036-2.082,0.06
				L143.512,513.344z"/>
			<path style="fill:#FFFFFF;" d="M143.522,513.243c0.695-0.025,1.388-0.044,2.082-0.06c11.065-0.825,18.714-1.006,18.714-1.006
				s-1.653-15.684-3.079-30.201l-14.245-2.097L143.522,513.243z"/>
			<polygon style="fill:#FFFFFF;" points="124.773,476.607 119.992,475.903 120.648,479.843 126.198,479.026 			"/>
			<path style="fill:#FFFFFF;" d="M119.23,515.659c-3.213,0.498-6.464,1.108-9.633,1.94c3.262-0.17,8.286-0.818,16.023-2.473
				c0.298-0.036,0.594-0.071,0.891-0.106l-0.065-0.389C124.033,514.932,121.626,515.276,119.23,515.659z"/>
			<polygon style="fill:#FFFFFF;" points="141.51,479.071 146.994,479.879 147.408,475.903 142.425,476.637 142.575,478.024 			"/>
			<path style="fill:#FFFFFF;" d="M126.446,514.629l-5.798-34.786l-8.882,1.308c-3.342,16.628-8.102,35.745-8.102,35.745
				s0.656,0.977,5.932,0.702c3.17-0.831,6.42-1.442,9.633-1.94C121.626,515.276,124.033,514.932,126.446,514.629z"/>
			<path style="fill:#FFFFFF;" d="M126.446,514.629l0.065,0.389c6.049-0.722,11.844-1.267,17.001-1.675l0.01-0.101
				C137.832,513.445,132.123,513.918,126.446,514.629z"/>
			<path style="fill:#FFFFFF;" d="M143.522,513.243l3.472-33.364l-5.484-0.807l-9.681,9.515l-5.631-9.561l-5.55,0.817l5.798,34.786
				C132.123,513.918,137.832,513.445,143.522,513.243z"/>
			<path style="fill:#145566;" d="M142.425,476.637l-8.581-79.147l3.281-4.3c1.132-1.483,0.074-3.621-1.792-3.621h-7.993
				c-1.47,0-2.547,1.385-2.184,2.809l1.3,5.112l-2.015,78.554l0.332,0.563l8.927,1.314L142.425,476.637z"/>
			<polygon style="fill:#145566;" points="133.7,477.921 124.773,476.607 126.198,479.026 			"/>
			<polygon style="fill:#145566;" points="141.51,479.071 142.575,478.024 142.425,476.637 133.7,477.921 			"/>
			<polygon style="fill:#145566;" points="126.198,479.026 131.829,488.586 141.51,479.071 133.7,477.921 			"/>
			<path style="fill:#B99A6F;" d="M136.086,385.556c0.798-3.436,4.593-4.983,6.638-8.03c2.317-3.454,3.53-7.479,4.055-11.577
				c0.009-0.07,0.018-0.14,0.027-0.21c-0.3,0.164-0.614,0.303-0.942,0.415c-0.401-1.644,0.369-3.316,0.734-4.969
				c0.092-0.417,0.109-0.849,0.083-1.285c-2.935-0.507-5.896-1.597-8.053-2.538c-4.489-1.96-13.232-4.047-17.894-1.733
				c-3.686,1.83-2.554,7.666-2.369,11.357c0.048,0.949,0.121,1.915-0.098,2.838c-0.225,0.95-0.816,1.592-1.185,2.391
				c0.411,1.438,1.084,2.803,2.18,4.041c2.954,3.335,5.959,4.975,6.755,8.739C129.45,384.788,132.856,384.976,136.086,385.556z"/>
			<path style="fill:#B99A6F;" d="M126.147,388.55c0.106,0.013,0.213,0.025,0.319,0.038l8.583,0.082
				c0.563-0.646,0.818-1.633,0.927-2.524c0.025-0.204,0.065-0.399,0.11-0.591c-3.23-0.58-6.636-0.767-10.066-0.561
				C126.233,386.005,126.297,387.159,126.147,388.55z"/>
			<path style="fill:#EAC5B0;" d="M132.59,389.312c0.527,0.062,1.075,0.123,1.579-0.043c0.254-0.083,0.473-0.214,0.664-0.379
				c0.077-0.067,0.147-0.142,0.215-0.22l-8.583-0.082C128.508,388.829,130.549,389.071,132.59,389.312z"/>
			<path style="fill:#1A3151;" d="M146.866,359.933c0.391,1.863,0.183,3.879-0.061,5.806c2.02-1.104,3.404-3.325,4.231-5.619
				C149.721,360.259,148.3,360.168,146.866,359.933z"/>
			<path style="fill:#1A3151;" d="M146.866,359.933c-0.062-0.01-0.123-0.023-0.185-0.033c0.026,0.436,0.009,0.868-0.083,1.285
				c-0.365,1.653-1.136,3.325-0.734,4.969c0.328-0.111,0.642-0.251,0.942-0.415C147.049,363.811,147.257,361.795,146.866,359.933z"
				/>
			<path style="fill:#1A3151;" d="M116.85,360.938c0.061-1.462,0.132-2.967,0.75-4.293c1.084-2.327,3.609-3.611,6.061-4.373
				c6.255-1.944,13.41-1.465,18.918,2.081c1.466,0.944,2.835,2.13,3.629,3.682c0.124,0.241,0.228,0.489,0.322,0.74
				c-0.371-1.805-1.209-3.603-0.923-4.901c0.413-1.871,3-2.276,4.442-1.244c1.033,0.74,1.602,2.055,1.708,3.364
				c0.106,1.309-0.2,2.619-0.622,3.856c-0.031,0.091-0.065,0.181-0.098,0.272c0.894-0.095,1.74-0.292,2.504-0.627
				c3.932-1.724,7.128-8.596,6.995-12.826c-0.062-1.98-0.817-3.75-2.586-4.945c-1.526-1.03-3.285-1.885-4.211-3.523
				c-0.719-1.271-0.825-2.845-1.538-4.12c-1.291-2.309-4.092-2.988-6.529-3.771c-6.097-1.958-9.379-4.218-15.837-1.712
				c-4.591,1.782-10.523,2.021-14.784,4.621c-1.78,1.086-3.294,2.829-4.536,4.772c-4.305,6.73-5.338,16.194-2.535,23.214
				c0.628,1.571,1.425,3.016,2.277,4.4c1.705,2.767,3.531,6.171,6.549,7.525c0.049-0.337,0.151-0.634,0.28-0.913
				C116.072,368.671,116.698,364.67,116.85,360.938z"/>
			<path style="fill:#1A3151;" d="M118.367,366.986c-0.186-3.691-1.317-9.527,2.369-11.357c4.661-2.314,13.404-0.227,17.894,1.733
				c2.156,0.941,5.118,2.031,8.053,2.538c-0.022-0.373-0.075-0.75-0.153-1.127c-0.094-0.25-0.198-0.498-0.322-0.74
				c-0.794-1.552-2.163-2.738-3.629-3.682c-5.508-3.546-12.662-4.024-18.918-2.081c-2.451,0.762-4.976,2.047-6.061,4.373
				c-0.618,1.326-0.689,2.832-0.75,4.293c-0.152,3.733-0.778,7.733,0.235,11.277c0.368-0.799,0.959-1.441,1.185-2.391
				C118.488,368.901,118.414,367.935,118.367,366.986z"/>
			<path style="fill:#1A3151;" d="M151.755,355.991c-0.106-1.309-0.674-2.624-1.708-3.364c-1.442-1.032-4.029-0.627-4.442,1.244
				c-0.286,1.298,0.552,3.096,0.923,4.901c0.142,0.379,0.255,0.765,0.338,1.16c1.434,0.236,2.855,0.326,4.17,0.187
				c0.033-0.091,0.067-0.181,0.098-0.272C151.555,358.611,151.862,357.301,151.755,355.991z"/>
			<path style="fill:#1A3151;" d="M146.529,358.773c0.078,0.377,0.13,0.754,0.153,1.127c0.062,0.011,0.123,0.023,0.185,0.033
				C146.783,359.538,146.67,359.151,146.529,358.773z"/>
		</g>
		<g>
			<g>
				<g>
					<path style="fill:#1A3151;" d="M930.393,373.462c-2.709,4.337-1.379,9.885-0.183,14.641c0.488,1.943,1.327,4.696-0.551,6.146
						c-2.102,1.623-5.564,0.073-6.654-1.98c-0.77-1.45-0.849-3.111-0.868-4.712c-0.083-7.176-0.19-17.225,2.549-23.878
						c2.196-5.334,11.987-12.949,17.814-7.283c1.058,1.029,1.489,2.471,1.811,3.856c0.192,0.827,0.359,1.683,0.19,2.505
						c-0.674,3.277-3.993,3.128-6.541,4.2C934.814,368.28,932.123,370.693,930.393,373.462z"/>
					<path style="fill:#EAC5B0;" d="M936.599,394.069c-4.44-2.046-7.286-6.498-8.128-11.042c-0.842-4.544,0.077-9.178,1.535-13.52
						c4.852-14.447,24.377-9.178,28.576,3.628C962.242,384.295,949.508,400.017,936.599,394.069z"/>
					<path style="fill:#1A3151;" d="M955.583,379.731c-0.396,1.81-0.089,3.958-0.412,5.844c-0.595,3.471-2.702,7.555-2.443,10.98
						c3.525,0.603,8.301-0.215,11.536-1.745c3.304-1.562,3.954-5.228,5.626-8.537c1.546-3.06,3.242-6.09,4.088-9.413
						c4.626-18.191-10.127-33.589-28.383-30.481c-6.907,1.176-11.951,8.108-9.184,14.581c2.976,6.962,13.281,7.599,17.632,13.441
						C955.007,375.696,955.457,377.619,955.583,379.731z"/>
				</g>
				<path style="fill:#EAC5B0;" d="M936.62,392.834c-0.142,1.366-0.283,2.732-0.425,4.098c-0.065,0.626-0.597,2.3-0.29,2.85
					c0.16,0.287,0.498,0.369,0.802,0.426c0.867,0.164,8.643,1.59,8.727,0.997c0.225-1.59,0.414-3.158,0.44-4.743
					c0.021-1.279,0.541-3.522,0.209-4.612c-1.566,0.598-3.059,0.787-4.696,0.78c-1.579-0.007-3.158-0.046-4.734-0.115
					C936.643,392.622,936.631,392.728,936.62,392.834z"/>
			</g>
			<g>
				<polygon style="fill:#EAC5B0;" points="879.086,507.733 873.681,506.684 868.268,514.381 871.357,519.842 877.689,520.891 
					880.022,513.105 				"/>
				<polygon style="fill:#EBB044;" points="930.015,411.044 905.263,410.858 897.388,466.032 873.638,505.349 880.23,512.953 
					911.64,481.371 				"/>
			</g>
			<g>
				<path style="fill:#1A3151;" d="M921.804,666.974c0.903-1.526,2.135-2.512,3.756-2.596c1.558-0.081,3.135,0.636,4.054,1.841
					c0.627,0.822,0.943,1.818,1.249,2.793c1.582,5.046,4.268,17.248-2.34,20.455c-2.777,1.347-5.668-0.191-7.03-2.609
					C919.44,683.213,918.784,672.075,921.804,666.974z"/>
				<path style="fill:#EAC5B0;" d="M933.782,589.236l-0.87,32.036c0.216,14.238-2.279,28.518-2.063,42.757
					c0.05,3.274,0.869,6.739-0.025,9.971c-0.874,3.161-3.521,3.685-6.205,2.04c-3.595-2.204-2.933-7.223-3.48-10.899
					c-1.504-10.102-3.297-20.161-4.875-30.251c-0.774-4.947,1.085-11.839,0.781-16.838l-4.882-26.927L933.782,589.236z"/>
			</g>
			<g>
				<path style="fill:#1A3151;" d="M944.471,668.228c1.155-1.361,2.541-2.138,4.154-1.962c1.55,0.168,2.98,1.126,3.678,2.461
					c0.475,0.911,0.614,1.943,0.746,2.953c0.684,5.229,1.215,17.691-5.857,19.803c-2.972,0.887-5.555-1.09-6.478-3.692
					C939.323,683.869,940.609,672.779,944.471,668.228z"/>
				<path style="fill:#EAC5B0;" d="M938.3,589.167l1.841,31.995c0.216,14.238,3.143,28.435,3.359,42.674
					c0.049,3.274-0.664,6.762,0.327,9.965c0.97,3.133,3.631,3.577,6.264,1.851c3.527-2.312,2.712-7.308,3.148-11
					c1.198-10.142,2.684-20.251,3.956-30.385c0.624-4.968-1.444-11.8-1.291-16.807l4.063-27.063L938.3,589.167z"/>
			</g>
			<path style="fill:#ADB6C4;" d="M954.576,398.67l-28.87,1.655l-15.684,11.836c0,0,1.624,49.335,1.025,67.597
				c-0.599,18.263-1.798,33.103-3.386,59.823c-1.747,29.4,5.751,64.761,5.751,64.761l61.035-0.925c0,0,12.426-66.914,6.033-84.259
				c-6.392-17.346-2.589-34.612-2.804-48.806s-6.183-61.774-6.183-61.774L954.576,398.67z"/>
			<path style="fill:#EBB044;" d="M968.239,402.43l14.795,12.249c0,0-6.267,54.612-6.534,63.664
				c-0.267,9.051,4.74,35.919,4.74,35.919l-21.491-1.958c0,0-9.928-14.463-12.262-33.608c-2.334-19.145,10.532-80.535,10.532-80.535
				L968.239,402.43z"/>
			<path style="fill:#EBB044;" d="M915.476,403.23l-11.061,7.677c0,0,5.064,59.404,5.578,68.444
				c0.514,9.039-6.963,37.923-6.963,37.923l23.587-4.468c0,0,8.838-14.748,10.455-33.952c1.617-19.205-12.186-80.19-12.186-80.19
				L915.476,403.23z"/>
			<g>
				<polygon style="fill:#EAC5B0;" points="1012.154,356.338 1018.566,358.485 1026.451,349.521 1023.601,342.117 1016.059,339.83 
					1011.912,349.371 				"/>
				<polygon style="fill:#EBB044;" points="958.323,427.548 1001.475,413.65 1023.165,356.004 1010.313,352.809 984.818,396.608 
					958.484,402.184 				"/>
			</g>
		</g>
		<g>
			
				<rect x="349.44" y="374.251" transform="matrix(0.8219 -0.5697 0.5697 0.8219 -129.8248 337.9755)" style="fill:#FFFFFF;" width="252.208" height="4.678"/>
		</g>
		<g>
			
				<rect x="469.243" y="111.392" transform="matrix(0.5271 -0.8498 0.8498 0.5271 20.7491 513.3175)" style="fill:#FFFFFF;" width="4.678" height="253.248"/>
		</g>
		<g>
			
				<rect x="376.762" y="84.784" transform="matrix(0.0945 -0.9955 0.9955 0.0945 58.7953 636.1799)" style="fill:#FFFFFF;" width="4.678" height="401.972"/>
		</g>
		<g>
			
				<rect x="537.275" y="211.596" transform="matrix(0.7292 -0.6843 0.6843 0.7292 35.0414 516.418)" style="fill:#FFFFFF;" width="265.445" height="4.678"/>
		</g>
		<g>
			
				<rect x="698.917" y="235.346" transform="matrix(0.5457 -0.838 0.838 0.5457 -6.6946 763.9429)" style="fill:#FFFFFF;" width="4.678" height="305.599"/>
		</g>
		<g>
			
				<rect x="579.078" y="289.992" transform="matrix(0.9995 -0.0326 0.0326 0.9995 -9.1157 25.8885)" style="fill:#FFFFFF;" width="419.646" height="4.678"/>
		</g>
		<circle style="fill:#3ABABA;" cx="562.197" cy="285.771" r="126.532"/>
		<circle style="fill:#C8D6A1;" cx="359.445" cy="157.083" r="59.282"/>
		<path style="fill:#C0E0F2;" d="M151.379,262.256c0-37.203,30.159-67.362,67.362-67.362s70.843,30.159,70.843,67.362
			c0,37.203-33.64,67.362-70.843,67.362S151.379,299.459,151.379,262.256z"/>
		<circle style="fill:#3ABABA;" cx="380.87" cy="448.423" r="53.159"/>
		<circle style="fill:#C0E0F2;" cx="765.249" cy="127.641" r="58.776"/>
		<circle style="fill:#C0E0F2;" cx="829.296" cy="464.743" r="64.047"/>
		
			<ellipse transform="matrix(0.7071 -0.7071 0.7071 0.7071 87.8953 783.2174)" style="fill:#C8D6A1;" cx="989.375" cy="285.51" rx="72.625" ry="72.625"/>
		<circle style="fill:#EBB044;" cx="937.136" cy="146.02" r="35.869"/>
		<circle style="fill:#3ABABA;" cx="119.992" cy="123.775" r="35.869"/>
		
			<ellipse transform="matrix(0.2298 -0.9732 0.9732 0.2298 -189.3814 272.2019)" style="fill:#C8D6A1;" cx="77.28" cy="255.748" rx="39.28" ry="39.28"/>
		<circle style="fill:#EBB044;" cx="187.009" cy="439.077" r="43.864"/>
		<g>
			<polygon style="fill:#B99A6F;" points="133.47,450.54 140.387,450.09 144.345,445.433 145.758,445.77 145.413,447.527 
				149.805,444.602 154.065,445.048 156.878,450.004 156.023,455.83 150.805,458.101 144.081,457.335 134.64,458.362 			"/>
			<polygon style="fill:#1A3151;" points="137.102,447.199 99.29,448.198 106.979,390.134 81.163,415.569 77.28,469.15 
				91.184,476.723 142.79,460.267 			"/>
		</g>
		<g>
			<path style="fill:#1A3151;" d="M674.365,408.134l10.188-9.919l27.544,1.84c0,0,2.771,19.588,15.274,63.351
				c12.504,43.764-5.806,99.471-5.806,99.471s-70.903-16.851-85.061-19.63l17.759-79.996L674.365,408.134z"/>
			<polygon style="fill:#1A3151;" points="697.037,513.494 697.037,529.096 676.234,596.706 681.434,666.917 668.432,669.518 
				647.629,583.704 648.425,558.457 658.031,506.965 			"/>
			<polygon style="fill:#1A3151;" points="680.534,531.967 701.438,674.989 710.939,674.989 716.94,596.977 729.942,518.965 			"/>
			<polygon points="670.14,668.184 660.214,678.689 663.081,684.013 683.561,674.183 679.789,666.401 			"/>
			<polygon points="701.614,672.981 689.379,680.673 690.825,686.545 713.111,682.143 711.403,673.665 			"/>
			<g>
				<path style="fill:#B99A6F;" d="M697.161,357.846c5.805,6.14,16.289,6.344,21.255,13.205c3.229,4.461,3.147,10.864,0.727,15.954
					c-1.128,2.373-2.774,4.578-5.013,5.917c-1.453,0.869-3.102,1.342-4.759,1.588c-2.215,0.328-4.465,0.227-6.63-0.25
					c-0.368,1.966-0.557,3.966-0.564,5.966c-3.873-1.522-9.006-0.252-12.88-1.773c0.872-2.228,3.003-7.248,3.875-9.476
					c-0.819-0.836-1.567-1.744-2.21-2.732c-3.888-5.975-4.037-14.295-0.369-20.594C692.312,362.701,694.742,360.245,697.161,357.846
					z"/>
				<polygon style="fill:#1A3151;" points="697.018,361.158 718.346,376.443 708.659,394.55 718.03,395.2 737.192,368.594 
					710.572,343.212 692.516,339.372 686.701,346.739 690.752,363.416 				"/>
			</g>
			<path style="fill:#FFFFFF;" d="M683.445,399.293l37.215,0.111c0,0,5.424,12.76,17.928,56.524
				c12.504,43.764-5.806,99.472-5.806,99.472s-63.425-31.339-77.583-34.118l10.281-65.507L683.445,399.293z"/>
			<path style="fill:#1A3151;" d="M739.055,456.862c-12.504-43.763-18.395-57.458-18.395-57.458l-36.057-1.348l-0.05,0.158
				c0.686,1.788,1.402,3.566,2.023,5.379c2.451,7.155,4.263,14.519,5.376,22.001c1.956,13.15,2.161,26.67,1.741,39.94
				c-0.403,12.732-1.716,25.441-3.978,37.978c-2.991,16.574-7.759,32.724-13.903,48.355c28.786,5.849,62.664,12.765,62.664,12.765
				S751.559,500.626,739.055,456.862z"/>
			<path style="fill:#FFD559;" d="M669.987,467.031c-1.4,5.893-2.899,12.532-1.703,18.262c0,0,3.86,8.067,4.192,7.735
				c0.014-0.257,4.401-3.88,5.629-6.58c2.095-4.607,2.546-10.356,2.589-15.552c0.155-18.439-0.936-37.027,2.174-55.203
				c3.628-1.103,6.74-3.772,4.508-7.56c-7.061,2.678-7.809,18.572-9.351,25.062C675.347,444.474,672.667,455.753,669.987,467.031z"
				/>
		</g>
		<polygon style="fill:#EAC5B0;" points="434.764,430.824 437.565,425.595 431.194,417.433 424.495,418.794 421.402,424.979 
			425.75,427.912 425.212,429.355 426.134,431.32 		"/>
		<path style="fill:#FFFFFF;" d="M654.043,246.969c-5.021-11.871-12.208-22.53-21.36-31.683c-9.153-9.153-19.813-16.34-31.684-21.36
			c-12.292-5.199-25.347-7.835-38.802-7.835c-13.455,0-26.51,2.636-38.802,7.835c-11.871,5.021-22.53,12.208-31.684,21.36
			c-9.153,9.153-16.339,19.813-21.36,31.683c-5.199,12.293-7.836,25.348-7.836,38.802c0,13.455,2.636,26.51,7.836,38.802
			c5.021,11.87,12.208,22.53,21.36,31.683c9.153,9.153,19.813,16.34,31.684,21.36c12.292,5.199,25.347,7.836,38.802,7.836
			c13.455,0,26.51-2.636,38.802-7.836c11.871-5.021,22.53-12.207,31.684-21.36c9.153-9.153,16.34-19.813,21.36-31.683
			c5.199-12.293,7.836-25.347,7.836-38.802C661.879,272.316,659.242,259.261,654.043,246.969z M513.747,282.698
			c0-7.805,0.893-15.446,2.65-22.855h40.784v47.414h-40.462C514.746,299.188,513.747,290.973,513.747,282.698z M587.228,217.158
			c7.2,8.418,12.931,17.587,17.035,27.251c0.757,1.782,1.451,3.584,2.097,5.401h-39.148v-51.136
			C571.911,202.048,579.564,208.198,587.228,217.158z M557.181,199.656v50.154h-37.822c0.621-1.747,1.288-3.481,2.011-5.195
			c4.065-9.634,9.747-18.779,16.888-27.182C545.284,209.166,552.376,203.234,557.181,199.656z M557.181,317.288v53.825
			c-4.771-4.14-11.654-10.755-18.539-19.62c-7.25-9.335-13.02-19.249-17.151-29.467c-0.635-1.571-1.231-3.151-1.789-4.738H557.181z
			 M567.213,372.238v-54.95h38.805c-0.536,1.525-1.105,3.043-1.713,4.553c-4.098,10.188-9.826,20.077-17.025,29.393
			C579.692,361.053,572.031,368.177,567.213,372.238z M567.213,307.257v-47.414h42.111c1.757,7.409,2.649,15.05,2.649,22.855
			c0,8.275-0.997,16.49-2.97,24.559H567.213z M619.607,259.842h28.451c2.495,8.302,3.789,17.015,3.789,25.928
			c0,7.337-0.88,14.538-2.581,21.486h-29.96c1.795-8.079,2.699-16.29,2.699-24.559C622.005,274.916,621.196,267.279,619.607,259.842
			z M625.589,222.379c8.034,8.035,14.353,17.327,18.778,27.432h-27.422c-1.004-3.152-2.149-6.262-3.448-9.322
			c-4.505-10.609-10.778-20.652-18.645-29.85c-4.068-4.757-8.128-8.78-11.827-12.093
			C599.01,202.331,613.681,210.471,625.589,222.379z M498.805,222.379c12.348-12.348,27.666-20.645,44.341-24.235
			c-3.819,3.386-8.044,7.545-12.278,12.495c-7.867,9.198-14.14,19.241-18.645,29.85c-1.3,3.06-2.444,6.171-3.448,9.322h-28.748
			C484.452,239.706,490.771,230.413,498.805,222.379z M476.336,259.842h29.778c-1.59,7.437-2.399,15.073-2.399,22.855
			c0,8.269,0.905,16.479,2.699,24.559h-31.287c-1.701-6.948-2.581-14.149-2.581-21.486
			C472.547,276.858,473.841,268.144,476.336,259.842z M498.805,349.163c-9.199-9.199-16.146-20.047-20.579-31.874h30.902
			c0.909,2.854,1.926,5.689,3.062,8.498c4.478,11.076,10.712,21.795,18.529,31.86c5.106,6.574,10.195,11.985,14.563,16.184
			C527.779,370.506,511.679,362.036,498.805,349.163z M625.589,349.163c-12.461,12.461-27.947,20.796-44.8,24.332
			c4.288-4.15,9.244-9.45,14.213-15.848c7.817-10.065,14.051-20.785,18.529-31.86c1.136-2.809,2.153-5.644,3.062-8.498h29.576
			C641.735,329.116,634.788,339.964,625.589,349.163z"/>
		<g>
			<path style="fill:#FFFFFF;" d="M1045.017,277.587c-6.032-10.096-18.456-14.881-29.775-11.843
				c-0.021,0.006-0.042,0.007-0.063,0.01c-3.48,1.264-6.387,3.72-7.638,7.594c-0.275,0.851-1.62,0.487-1.343-0.37
				c1.341-4.153,4.351-6.854,7.999-8.313c-3.987-12.55-16.126-21.439-29.464-20.451c-13.125,0.973-23.789,10.936-26.327,23.716
				c1.103,0.262,2.186,0.624,3.236,1.102c4.174,1.901,7.414,5.178,9.72,9.103c0.456,0.776-0.748,1.477-1.203,0.703
				c-0.759-1.291-1.641-2.512-2.642-3.627c-3.715-4.139-9.024-6.604-14.621-6.354c-5.655,0.252-11.75,3.273-15.557,7.405
				c-4.363,4.735-6.716,11.139-6.134,17.591c0.571,6.332,3.867,12.237,8.974,16.043c4.737,3.53,10.247,5.135,16.102,5.358
				c3.84,0.146,7.683,0.201,11.525,0.253c10.981,0.149,21.964,0.192,32.947,0.22c4.825,0.013,9.65,0.02,14.474,0.023
				c3.963,0.003,8.134,0.32,12.039-0.433c12.768-2.46,22.432-14.165,21.16-27.358
				C1048.074,284.301,1046.902,280.742,1045.017,277.587z"/>
		</g>
		<path style="fill:#FFFFFF;" d="M243.358,279.539c-4.266-1.711-8.963-0.68-12.132,2.252l-21.855-12.401
			c1.501-4.269,1.142-8.783-0.679-12.616l20.639-13.646c1.269,1.265,2.807,2.3,4.572,3.007c7.035,2.821,15.053-0.607,17.874-7.642
			c2.821-7.035-0.607-15.053-7.642-17.874c-7.035-2.821-15.053,0.607-17.874,7.642c-1.207,3.011-1.269,6.201-0.394,9.088
			l-21.243,14.045c-1.367-1.195-2.953-2.183-4.731-2.896c-8.49-3.404-18.167,0.733-21.572,9.223
			c-3.405,8.49,0.733,18.167,9.223,21.572c6.48,2.598,13.651,0.803,18.197-3.967l22.051,12.512
			c-1.148,5.381,1.709,10.983,6.985,13.099c5.9,2.366,12.624-0.509,14.99-6.409C252.133,288.63,249.258,281.905,243.358,279.539z"/>
		<g>
			<g>
				
					<ellipse transform="matrix(0.2298 -0.9732 0.9732 0.2298 159.651 1184.4985)" style="fill:#FFFFFF;" cx="828.164" cy="491.386" rx="12.774" ry="12.774"/>
				<path style="opacity:0.06;fill:#FFFFFF;" d="M837.599,484.474c0.499,1.621,0.691,3.372,0.553,5.129
					c-0.209,2.658-1.228,5.325-3.016,7.314c-1.88,2.091-4.278,3.452-6.85,4.066c-1.289,0.308-2.611,0.427-3.906,0.361
					c-0.047-0.003-0.095-0.005-0.143-0.008c0.625,0.469,1.318,0.861,2.072,1.159c5.041,1.993,10.921-0.926,13.134-6.522
					C841.094,491.796,840.236,487.31,837.599,484.474z"/>
			</g>
			<g>
				<path style="fill:#FFFFFF;" d="M852.017,483.667c-10.185-9.102-21.22-11.9-32.796-8.315c-8.857,2.743-14.651,8.168-14.708,8.222
					l-6.572-6.658c0.3-0.284,7.475-7.004,18.432-10.396c10.328-3.198,26-4.007,42.014,10.304L852.017,483.667z"/>
			</g>
			<g>
				<path style="fill:#FFFFFF;" d="M862.715,473.564c-8.191-7.356-16.881-11.919-25.828-13.564
					c-7.087-1.303-14.419-0.799-21.793,1.496c-12.785,3.979-21.195,11.896-21.278,11.975l-6.589-6.642
					c0.406-0.387,10.117-9.528,25.006-14.162c8.878-2.763,17.76-3.359,26.398-1.771c10.708,1.968,20.96,7.298,30.472,15.84
					L862.715,473.564z"/>
			</g>
			<g>
				<path style="fill:#FFFFFF;" d="M873.353,463.42c-10.628-9.545-21.924-15.492-33.573-17.676
					c-9.265-1.738-18.845-1.125-28.474,1.821c-16.76,5.128-28.022,15.661-28.134,15.767l-6.584-6.647
					c0.511-0.487,12.743-12,31.537-17.85c11.172-3.477,22.341-4.228,33.198-2.233c13.482,2.478,26.407,9.204,38.416,19.989
					L873.353,463.42z"/>
			</g>
		</g>
		<g>
			<polygon style="fill:#B99A6F;" points="615.961,379.282 611.902,368.869 616.277,366.94 620.635,373.455 622.281,371.583 
				624.669,380.917 620.392,383.535 			"/>
			<polygon style="fill:#1A3151;" points="708.526,413.071 662.613,417.375 624.92,377.485 616.699,383.115 647,435.857 
				708.526,446.09 			"/>
		</g>
		<path style="fill:#FFFFFF;" d="M404.883,417.02c-3.322-2.059-7.533-2.127-10.973-0.322c-0.77,0.404-1.53,0.826-2.295,1.238
			c-3.981,2.147-7.961,4.294-11.942,6.441c-2.978,1.606-5.963,3.202-8.935,4.819c-2.674,1.455-4.756,3.917-5.525,6.891
			c-0.748,2.892-0.247,5.711,1.097,8.318c-1.611,0.869-3.222,1.738-4.833,2.607c-2.978,1.606-5.963,3.202-8.935,4.819
			c-2.674,1.455-4.756,3.917-5.525,6.891c-0.773,2.986-0.216,5.896,1.228,8.572c1.041,1.931,2.083,3.862,3.125,5.793
			c0.941,1.745,1.796,3.633,3.133,5.119c2.608,2.899,6.799,4.174,10.586,3.285c1.461-0.343,2.736-1.042,4.037-1.744
			c7.133-3.848,14.267-7.695,21.4-11.543c0.197-0.107,0.395-0.213,0.592-0.319c3.474-1.934,5.804-5.65,5.758-9.669
			c-0.023-2.009-0.651-3.744-1.49-5.454c0.323-0.174,0.647-0.349,0.97-0.523c4.122-2.223,8.244-4.447,12.366-6.67
			c0.197-0.106,0.394-0.213,0.592-0.319c3.474-1.934,5.804-5.65,5.758-9.669c-0.029-2.536-1.017-4.636-2.183-6.798
			c-1.114-2.065-2.228-4.131-3.342-6.196C408.361,420.391,407.074,418.377,404.883,417.02z M396.9,420.716
			C396.856,420.729,396.84,420.734,396.9,420.716L396.9,420.716z M378.834,443.313c0.019-0.006,0.039-0.011,0.062-0.018
			c0.284-0.083,0.565-0.164,0.854-0.224c0.143-0.03,0.288-0.048,0.431-0.078c0.049-0.01,0.087-0.019,0.118-0.026
			c0.029,0,0.065,0,0.108,0c0.361-0.005,0.716-0.013,1.076,0.015c0.044,0.003,0.362,0.045,0.42,0.046
			c0.076,0.016,0.151,0.029,0.226,0.047c0.452,0.105,0.893,0.247,1.322,0.423c0.007,0.003,0.011,0.004,0.017,0.007
			c0.024,0.015,0.052,0.032,0.086,0.052c0.185,0.11,0.377,0.205,0.56,0.318c0.137,0.085,0.817,0.612,0.609,0.419
			c0.253,0.225,0.496,0.458,0.723,0.71c0.102,0.113,0.2,0.231,0.296,0.35c-0.016-0.011,0.205,0.296,0.251,0.371
			c0.82,1.343,1.512,2.778,2.258,4.162c0.155,0.287,0.31,0.574,0.464,0.861c-0.148,0.08-0.297,0.16-0.445,0.24
			c-0.082,0.044-0.164,0.088-0.245,0.132c-1.26,0.68-2.52,1.359-3.78,2.039c-0.197,0.106-0.392,0.215-0.591,0.319
			c-0.231,0.121-0.466,0.233-0.706,0.337c0.111-0.06-0.623,0.191-0.771,0.226c-0.214,0.05-0.43,0.08-0.645,0.125
			c-0.034,0.007-0.061,0.013-0.087,0.019c-0.01,0-0.018,0-0.031,0.001c-0.471,0.027-0.929-0.007-1.398-0.028
			c-0.037-0.002-0.122-0.013-0.179-0.02c-0.155-0.031-0.309-0.065-0.461-0.105c-0.347-0.09-0.68-0.209-1.016-0.332
			c-0.038-0.014-0.069-0.025-0.096-0.034c-0.027-0.018-0.06-0.038-0.105-0.065c-0.123-0.073-0.253-0.135-0.376-0.207
			c-0.186-0.109-0.368-0.225-0.545-0.347c-0.082-0.057-0.162-0.117-0.242-0.177c-0.009-0.007-0.016-0.014-0.026-0.023
			c-0.299-0.272-0.586-0.552-0.848-0.859c-0.05-0.059-0.097-0.12-0.145-0.18c-0.001-0.014-0.228-0.33-0.255-0.375
			c-0.125-0.205-0.238-0.416-0.352-0.627c-0.793-1.464-1.581-2.93-2.371-4.396c1.27-0.685,2.541-1.37,3.811-2.056
			c0.362-0.195,0.723-0.391,1.085-0.585c0.054-0.029,0.107-0.059,0.162-0.087C378.311,443.549,378.569,443.425,378.834,443.313z
			 M378.703,443.351C378.66,443.365,378.644,443.369,378.703,443.351L378.703,443.351z M391.062,455.096
			c0.05,0.094,0.102,0.187,0.151,0.28c0.106,0.203,0.199,0.411,0.301,0.616c0.013,0.026,0.025,0.049,0.035,0.07
			c0.004,0.013,0.008,0.027,0.014,0.044c0.148,0.46,0.239,0.919,0.337,1.391c0.007,0.033,0.016,0.106,0.022,0.161
			c0.009,0.165,0.016,0.331,0.015,0.497c0,0.292-0.023,0.58-0.051,0.869c-0.006,0.011-0.055,0.368-0.067,0.421
			c-0.032,0.139-0.068,0.277-0.107,0.414c-0.059,0.206-0.125,0.409-0.199,0.61c-0.03,0.082-0.064,0.162-0.096,0.242
			c-0.008,0.016-0.018,0.036-0.031,0.063c-0.185,0.349-0.377,0.691-0.603,1.017c-0.043,0.062-0.089,0.122-0.134,0.184
			c-0.031,0.028-0.254,0.293-0.286,0.327c-0.255,0.268-0.53,0.507-0.81,0.748c-0.038,0.033-0.068,0.059-0.092,0.081
			c-0.027,0.015-0.06,0.033-0.099,0.056c-0.198,0.115-0.39,0.238-0.59,0.349c-6.314,3.405-12.628,6.811-18.942,10.217
			c-1.26,0.68-2.52,1.359-3.78,2.039c-0.197,0.106-0.393,0.215-0.59,0.318c-0.231,0.121-0.466,0.233-0.706,0.337
			c0.111-0.061-0.624,0.191-0.771,0.226c-0.214,0.05-0.431,0.08-0.645,0.125c-0.034,0.007-0.061,0.013-0.087,0.019
			c-0.01,0.001-0.018,0.001-0.032,0.001c-0.471,0.027-0.929-0.007-1.398-0.028c-0.037-0.002-0.122-0.013-0.179-0.02
			c-0.155-0.031-0.309-0.065-0.461-0.105c-0.347-0.09-0.679-0.209-1.016-0.332c-0.038-0.014-0.069-0.025-0.096-0.034
			c-0.027-0.018-0.06-0.038-0.105-0.065c-0.123-0.073-0.253-0.135-0.376-0.207c-0.186-0.109-0.368-0.225-0.545-0.347
			c-0.082-0.057-0.162-0.117-0.242-0.177c-0.008-0.007-0.016-0.014-0.026-0.023c-0.299-0.272-0.586-0.552-0.848-0.859
			c-0.05-0.059-0.097-0.12-0.145-0.18c-0.001-0.014-0.228-0.33-0.255-0.375c-0.125-0.205-0.238-0.416-0.352-0.627
			c-0.924-1.704-1.841-3.413-2.761-5.119c-0.738-1.368-1.516-2.722-2.214-4.111c-0.068-0.136-0.127-0.276-0.195-0.412
			c-0.022-0.044-0.04-0.078-0.055-0.107c-0.007-0.031-0.017-0.067-0.029-0.113c-0.097-0.356-0.201-0.706-0.266-1.07
			c-0.009-0.05-0.055-0.451-0.061-0.434c-0.005-0.111-0.009-0.221-0.01-0.332c-0.002-0.179,0.001-0.359,0.01-0.538
			c0.004-0.073,0.064-0.583,0.056-0.612c0.058-0.292,0.13-0.583,0.219-0.867c0.053-0.171,0.117-0.337,0.176-0.505
			c0.016-0.045,0.057-0.133,0.089-0.201c0.149-0.288,0.304-0.571,0.482-0.843c0.085-0.129,0.174-0.256,0.266-0.38
			c-0.02,0.04,0.292-0.327,0.351-0.388c0.254-0.261,0.525-0.503,0.81-0.729c0.042-0.03,0.088-0.063,0.114-0.078
			c0.198-0.115,0.39-0.238,0.59-0.349c0.046-0.026,0.093-0.05,0.14-0.076c0.347-0.189,0.695-0.375,1.042-0.562
			c1.465-0.79,2.931-1.581,4.396-2.371c2.775-1.497,5.55-2.993,8.324-4.49c0.017,0.031,0.033,0.062,0.05,0.092l-0.018,0.01
			l0.151,0.28l0.021-0.004c0.237,0.439,0.474,0.879,0.711,1.318c0.941,1.745,1.796,3.633,3.133,5.119
			c2.608,2.899,6.799,4.174,10.586,3.285c1.461-0.343,2.736-1.042,4.038-1.744c1.098-0.592,2.197-1.185,3.295-1.777
			C390.764,455.255,390.913,455.175,391.062,455.096L391.062,455.096z M406.448,427.251c0.937,1.737,1.876,3.472,2.81,5.21
			c0.05,0.094,0.102,0.186,0.151,0.28c0.106,0.203,0.199,0.411,0.301,0.616c0.013,0.026,0.025,0.049,0.035,0.07
			c0.004,0.013,0.008,0.027,0.014,0.044c0.148,0.46,0.239,0.92,0.337,1.391c0.007,0.034,0.016,0.106,0.022,0.162
			c0.01,0.165,0.016,0.331,0.015,0.497c0,0.292-0.023,0.58-0.051,0.869c-0.006,0.01-0.055,0.368-0.068,0.421
			c-0.032,0.139-0.068,0.277-0.107,0.414c-0.059,0.206-0.125,0.409-0.199,0.61c-0.03,0.082-0.064,0.162-0.096,0.242
			c-0.008,0.016-0.018,0.036-0.031,0.063c-0.185,0.35-0.377,0.691-0.603,1.017c-0.043,0.062-0.089,0.122-0.134,0.184
			c-0.031,0.028-0.254,0.293-0.286,0.327c-0.255,0.268-0.53,0.507-0.81,0.747c-0.038,0.033-0.068,0.06-0.092,0.081
			c-0.027,0.015-0.06,0.033-0.099,0.056c-0.198,0.115-0.39,0.238-0.59,0.349c-4.319,2.33-8.639,4.66-12.958,6.989
			c-0.315,0.17-0.63,0.34-0.945,0.51c-0.572-1.06-1.143-2.119-1.715-3.179c-1.185-2.197-2.472-4.211-4.663-5.568
			c-3.322-2.059-7.533-2.127-10.973-0.322c-0.77,0.404-1.53,0.826-2.295,1.238c-0.924,0.498-1.847,0.996-2.771,1.495
			c-0.084-0.163-0.171-0.325-0.253-0.488c-0.068-0.136-0.127-0.276-0.195-0.412c-0.022-0.044-0.04-0.078-0.055-0.107
			c-0.007-0.03-0.017-0.067-0.029-0.113c-0.097-0.356-0.201-0.706-0.266-1.07c-0.009-0.05-0.055-0.451-0.061-0.433
			c-0.005-0.111-0.009-0.221-0.01-0.332c-0.002-0.179,0.001-0.359,0.01-0.538c0.004-0.073,0.064-0.583,0.056-0.612
			c0.057-0.293,0.13-0.583,0.219-0.867c0.053-0.17,0.117-0.336,0.176-0.505c0.016-0.046,0.057-0.133,0.09-0.201
			c0.149-0.288,0.304-0.571,0.482-0.843c0.085-0.13,0.174-0.256,0.266-0.381c-0.02,0.04,0.292-0.327,0.351-0.388
			c0.254-0.261,0.525-0.503,0.81-0.729c0.041-0.03,0.088-0.063,0.114-0.078c0.198-0.115,0.39-0.238,0.59-0.349
			c0.046-0.026,0.093-0.05,0.14-0.076c0.347-0.189,0.695-0.375,1.042-0.562c1.466-0.79,2.931-1.581,4.397-2.371
			c4.01-2.163,8.02-4.326,12.03-6.489c1.484-0.801,2.969-1.601,4.453-2.402c0.362-0.195,0.723-0.391,1.085-0.585
			c0.054-0.029,0.107-0.059,0.161-0.087c0.255-0.134,0.513-0.258,0.779-0.37c0.019-0.006,0.039-0.011,0.062-0.018
			c0.284-0.083,0.565-0.164,0.854-0.224c0.143-0.03,0.288-0.048,0.431-0.078c0.049-0.01,0.087-0.019,0.118-0.026
			c0.03,0,0.065,0,0.108,0c0.361-0.005,0.716-0.013,1.076,0.015c0.044,0.003,0.362,0.045,0.42,0.046
			c0.076,0.016,0.151,0.029,0.226,0.047c0.452,0.105,0.894,0.247,1.322,0.424c0.007,0.003,0.011,0.004,0.017,0.007
			c0.025,0.015,0.052,0.032,0.086,0.052c0.185,0.11,0.377,0.205,0.56,0.319c0.136,0.085,0.816,0.611,0.609,0.419
			c0.253,0.225,0.496,0.458,0.722,0.71c0.102,0.113,0.2,0.231,0.296,0.35c-0.016-0.011,0.205,0.296,0.251,0.371
			C405.009,424.433,405.702,425.867,406.448,427.251z"/>
		<g>
			<path style="fill:#FFFFFF;" d="M377.044,121.569c-2.019-2.719-4.785-4.698-7.997-5.722c-2.174-0.693-4.364-0.693-6.482-0.693
				h-6.164c-2.865,0-5.383,0.543-7.7,1.659c-2.954,1.423-5.522,3.989-7.044,7.039c-1.104,2.211-1.663,4.637-1.663,7.212v32.577
				h4.898v-32.739c0-1.279,0.141-2.153,0.559-3.463c0.324-1.016,1.118-2.476,1.807-3.323c0.918-1.128,1.776-1.862,3.058-2.618
				c1.168-0.688,2.329-1.092,3.879-1.352c0.065-0.011,0.275-0.04,0.802-0.075c0.22-0.014,0.457-0.021,0.747-0.021h8.629
				c1.305,0,2.188,0.141,3.498,0.559c1.017,0.324,2.476,1.118,3.322,1.807c1.129,0.918,1.862,1.776,2.618,3.058
				c0.688,1.168,1.092,2.329,1.352,3.879c0.011,0.066,0.04,0.275,0.075,0.802c0.014,0.22,0.021,0.455,0.021,0.738v32.747h4.898
				v-32.739C380.156,127.538,379.08,124.31,377.044,121.569z"/>
			<g>
				<path style="fill:#FFFFFF;" d="M334.397,151.397v35.521c0,4.804,3.895,8.699,8.699,8.699h32.699
					c4.804,0,8.699-3.895,8.699-8.699v-35.521H334.397z M361.116,174.159v8.553c0,0.635-0.74,1.15-1.654,1.15h-0.033
					c-0.913,0-1.654-0.515-1.654-1.15v-8.553c-2.827-0.739-4.914-3.311-4.914-6.37c0-3.636,2.948-6.584,6.584-6.584
					s6.584,2.948,6.584,6.584C366.03,170.848,363.943,173.42,361.116,174.159z"/>
			</g>
		</g>
		<g>
			<g>
				<g>
					<path style="fill:#FFFFFF;" d="M770.965,93.065l-0.76-3.525c-1.219-0.156-2.452-0.257-3.695-0.298
						c-1.244-0.041-2.481-0.021-3.707,0.055l-0.99,3.467c-1.126,3.944-6.148,5.114-8.901,2.075l-2.431-2.684
						c-2.273,0.947-4.456,2.117-6.523,3.499l0.878,3.502c0.997,3.978-2.767,7.503-6.671,6.247l-3.437-1.105
						c-1.515,1.972-2.825,4.073-3.919,6.279l2.519,2.602c2.853,2.947,1.355,7.881-2.654,8.746l-3.525,0.76
						c-0.156,1.219-0.257,2.452-0.298,3.696c-0.041,1.244-0.021,2.48,0.055,3.707l3.467,0.99c3.944,1.126,5.114,6.147,2.075,8.901
						l-2.684,2.432c0.947,2.273,2.117,4.456,3.499,6.523l3.502-0.878c3.978-0.997,7.503,2.767,6.247,6.671l-1.105,3.437
						c1.972,1.515,4.073,2.825,6.279,3.919l2.602-2.519c2.947-2.853,7.881-1.355,8.746,2.654l0.76,3.525
						c1.219,0.156,2.451,0.257,3.695,0.298c1.244,0.041,2.481,0.021,3.707-0.055l0.99-3.467c1.126-3.944,6.147-5.114,8.901-2.075
						l2.432,2.684c2.273-0.947,4.456-2.117,6.523-3.499l-0.878-3.502c-0.997-3.978,2.767-7.503,6.671-6.247l3.437,1.105
						c1.515-1.972,2.825-4.074,3.919-6.279l-2.519-2.602c-2.853-2.947-1.355-7.881,2.654-8.746l3.525-0.76
						c0.156-1.219,0.257-2.452,0.298-3.695c0.041-1.244,0.021-2.481-0.055-3.707l-3.467-0.99c-3.944-1.126-5.114-6.147-2.075-8.901
						l2.684-2.431c-0.947-2.273-2.117-4.456-3.499-6.523l-3.502,0.877c-3.978,0.997-7.503-2.767-6.247-6.671l1.105-3.437
						c-1.972-1.515-4.073-2.825-6.279-3.919l-2.602,2.519C776.764,98.572,771.83,97.075,770.965,93.065z M780.969,128.157
						c-0.285,8.682-7.554,15.489-16.237,15.204c-8.682-0.285-15.49-7.554-15.205-16.237c0.285-8.682,7.554-15.49,16.237-15.205
						C774.447,112.205,781.254,119.475,780.969,128.157z"/>
				</g>
			</g>
		</g>
		<path style="fill:#FFFFFF;" d="M215.719,435.723c0-11.192-12.854-20.266-28.71-20.266s-28.71,9.073-28.71,20.266
			c0,7.073,5.135,13.299,12.916,16.925l16.035,17.817l-2.667-14.548c0.8,0.047,1.609,0.073,2.426,0.073
			C202.865,455.989,215.719,446.915,215.719,435.723z M174.975,438.866c-2.509,0-2.514-3.9,0-3.9
			C177.484,434.966,177.489,438.866,174.975,438.866z M200.424,434.966c2.509,0,2.513,3.9,0,3.9
			C197.915,438.866,197.911,434.966,200.424,434.966z M188.388,434.966c2.509,0,2.513,3.9,0,3.9
			C185.879,438.866,185.874,434.966,188.388,434.966z"/>
	</g>
</g>
</svg>
